<svg width="1340" height="408" viewBox="0 0 1340 408" fill="none" xmlns="http://www.w3.org/2000/svg">
<path d="M94.714 245.455C99.5382 245.455 102.662 250.56 100.474 254.869L43.6691 366.759C40.266 373.462 49.0798 379.615 54.1747 374.093L131.905 289.849C135.768 285.662 142.754 288.159 143.101 293.851L149.698 401.918C150.165 409.558 161.145 410.21 162.508 402.678L181.329 298.687C182.285 293.406 188.866 291.515 192.469 295.484L271.478 382.53C276.746 388.334 285.849 381.509 281.78 374.806L224.721 280.804C222.095 276.479 225.214 270.943 230.265 270.961L350.458 271.385C357.93 271.411 359.48 260.823 352.315 258.698L242.004 225.968C236.65 224.38 235.691 217.193 240.44 214.249L355.9 142.689C362.285 138.732 357.939 128.884 350.722 130.954L226.49 166.593C222.474 167.745 218.44 164.835 218.254 160.653L211.412 6.19126C211.074 -1.44252 200.134 -2.29588 198.621 5.19353L170.305 145.388C169.18 150.957 161.954 152.479 158.687 147.835L88.2064 47.6313C83.7374 41.2777 73.9321 46.7612 76.9812 53.9089L126.211 169.311C128.54 174.773 122.918 180.234 117.543 177.73L18.8749 131.764C11.8687 128.5 6.08697 138.077 12.2236 142.781L82.7919 196.88C86.9348 200.056 85.8102 206.588 80.8449 208.189L4.48908 232.813C-2.52704 235.075 -0.901605 245.455 6.46882 245.455H94.714Z" fill="#FFB700"/>
<path d="M1245.29 245.455C1240.46 245.455 1237.34 250.56 1239.53 254.869L1296.33 366.759C1299.73 373.462 1290.92 379.615 1285.83 374.093L1208.1 289.849C1204.23 285.662 1197.25 288.159 1196.9 293.851L1190.3 401.918C1189.84 409.558 1178.85 410.21 1177.49 402.678L1158.67 298.687C1157.72 293.406 1151.13 291.515 1147.53 295.484L1068.52 382.53C1063.25 388.334 1054.15 381.509 1058.22 374.806L1115.28 280.804C1117.9 276.479 1114.79 270.943 1109.74 270.961L989.542 271.385C982.07 271.411 980.52 260.823 987.685 258.698L1098 225.968C1103.35 224.38 1104.31 217.193 1099.56 214.249L984.1 142.689C977.715 138.732 982.061 128.884 989.278 130.954L1113.51 166.593C1117.53 167.745 1121.56 164.835 1121.75 160.653L1128.59 6.19126C1128.93 -1.44252 1139.87 -2.29588 1141.38 5.19353L1169.7 145.388C1170.82 150.957 1178.05 152.479 1181.31 147.835L1251.79 47.6313C1256.26 41.2777 1266.07 46.7612 1263.02 53.9089L1213.79 169.311C1211.46 174.773 1217.08 180.234 1222.46 177.73L1321.13 131.764C1328.13 128.5 1333.91 138.077 1327.78 142.781L1257.21 196.88C1253.07 200.056 1254.19 206.588 1259.16 208.189L1335.51 232.813C1342.53 235.075 1340.9 245.455 1333.53 245.455H1245.29Z" fill="#FFB700"/>
</svg>
