<svg width="402" height="60" viewBox="0 0 402 60" fill="none" xmlns="http://www.w3.org/2000/svg">
<rect x="0.5" y="0.5" width="201.5" height="59" rx="4.5" fill="black"/>
<path d="M102.204 32.6268C98.676 32.6268 95.8005 35.3103 95.8005 39.0063C95.8005 42.6798 98.676 45.3858 102.204 45.3858C105.733 45.3858 108.609 42.6798 108.609 39.0063C108.607 35.3103 105.732 32.6268 102.204 32.6268ZM102.204 42.8748C100.27 42.8748 98.604 41.2803 98.604 39.0078C98.604 36.7113 100.272 35.1408 102.204 35.1408C104.137 35.1408 105.804 36.7113 105.804 39.0078C105.804 41.2788 104.137 42.8748 102.204 42.8748ZM88.233 32.6268C84.705 32.6268 81.8295 35.3103 81.8295 39.0063C81.8295 42.6798 84.705 45.3858 88.233 45.3858C91.7625 45.3858 94.638 42.6798 94.638 39.0063C94.638 35.3103 91.7625 32.6268 88.233 32.6268ZM88.233 42.8748C86.2995 42.8748 84.633 41.2803 84.633 39.0078C84.633 36.7113 86.301 35.1408 88.233 35.1408C90.1665 35.1408 91.833 36.7113 91.833 39.0078C91.8345 41.2788 90.1665 42.8748 88.233 42.8748ZM71.616 34.5858V37.2918H78.093C77.8995 38.8143 77.3925 39.9258 76.6185 40.6983C75.6765 41.6403 74.202 42.6798 71.616 42.6798C67.629 42.6798 64.512 39.4653 64.512 35.4783C64.512 31.4913 67.629 28.2768 71.616 28.2768C73.767 28.2768 75.3375 29.1228 76.497 30.2103L78.4065 28.3008C76.7865 26.7543 74.637 25.5708 71.616 25.5708C66.1545 25.5708 61.563 30.0168 61.563 35.4783C61.563 40.9398 66.1545 45.3858 71.616 45.3858C74.5635 45.3858 76.788 44.4183 78.5265 42.6063C80.3145 40.8183 80.871 38.3043 80.871 36.2748C80.871 35.6478 80.823 35.0673 80.7255 34.5843H71.616V34.5858ZM139.578 36.6873C139.047 35.2623 137.427 32.6268 134.116 32.6268C130.83 32.6268 128.098 35.2128 128.098 39.0063C128.098 42.5823 130.806 45.3858 134.43 45.3858C137.353 45.3858 139.045 43.5978 139.747 42.5583L137.572 41.1078C136.848 42.1713 135.856 42.8718 134.43 42.8718C133.005 42.8718 131.989 42.2193 131.337 40.9383L139.867 37.4103L139.578 36.6873ZM130.878 38.8143C130.806 36.3483 132.787 35.0928 134.214 35.0928C135.325 35.0928 136.267 35.6493 136.582 36.4458L130.878 38.8143ZM123.943 45.0003H126.745V26.2488H123.943V45.0003ZM119.35 34.0533H119.254C118.626 33.3033 117.417 32.6268 115.896 32.6268C112.705 32.6268 109.782 35.4303 109.782 39.0318C109.782 42.6078 112.705 45.3873 115.896 45.3873C117.418 45.3873 118.626 44.7108 119.254 43.9383H119.35V44.8563C119.35 47.2968 118.045 48.6018 115.944 48.6018C114.228 48.6018 113.164 47.3703 112.729 46.3308L110.289 47.3463C110.989 49.0368 112.849 51.1158 115.944 51.1158C119.23 51.1158 122.01 49.1823 122.01 44.4693V33.0153H119.352V34.0533H119.35ZM116.137 42.8748C114.204 42.8748 112.585 41.2548 112.585 39.0318C112.585 36.7833 114.204 35.1408 116.137 35.1408C118.045 35.1408 119.544 36.7833 119.544 39.0318C119.544 41.2548 118.045 42.8748 116.137 42.8748ZM152.709 26.2488H146.002V45.0003H148.8V37.8963H152.707C155.809 37.8963 158.86 35.6508 158.86 32.0733C158.86 28.4958 155.811 26.2488 152.709 26.2488ZM152.781 35.2863H148.8V28.8588H152.781C154.873 28.8588 156.061 30.5913 156.061 32.0733C156.061 33.5253 154.873 35.2863 152.781 35.2863ZM170.079 32.5938C168.052 32.5938 165.954 33.4863 165.085 35.4648L167.569 36.5013C168.1 35.4648 169.09 35.1258 170.127 35.1258C171.574 35.1258 173.046 35.9943 173.07 37.5378V37.7313C172.563 37.4418 171.477 37.0083 170.151 37.0083C167.473 37.0083 164.746 38.4798 164.746 41.2293C164.746 43.7388 166.942 45.3543 169.402 45.3543C171.283 45.3543 172.321 44.5098 172.972 43.5198H173.068V44.9673H175.771V37.7778C175.773 34.4508 173.286 32.5938 170.079 32.5938ZM169.74 42.8703C168.825 42.8703 167.545 42.4113 167.545 41.2773C167.545 39.8298 169.138 39.2748 170.514 39.2748C171.742 39.2748 172.323 39.5403 173.07 39.9018C172.852 41.6403 171.357 42.8703 169.74 42.8703ZM185.614 33.0033L182.406 41.1333H182.31L178.98 33.0033H175.965L180.958 44.3658L178.111 50.6868H181.03L188.727 33.0033H185.614ZM160.405 45.0003H163.203V26.2488H160.405V45.0003Z" fill="white"/>
<path d="M71.1271 15.3643C71.1271 16.6213 70.7551 17.6218 70.0096 18.3688C69.1636 19.2568 68.0596 19.7008 66.7036 19.7008C65.4046 19.7008 64.2991 19.2508 63.3916 18.3508C62.4826 17.4493 62.0281 16.3333 62.0281 15.0013C62.0281 13.6678 62.4826 12.5518 63.3916 11.6518C64.2991 10.7503 65.4046 10.3003 66.7036 10.3003C67.3486 10.3003 67.9651 10.4263 68.5501 10.6768C69.1366 10.9288 69.6061 11.2633 69.9571 11.6818L69.1666 12.4738C68.5711 11.7613 67.7506 11.4058 66.7021 11.4058C65.7541 11.4058 64.9351 11.7388 64.2436 12.4048C63.5521 13.0708 63.2071 13.9363 63.2071 14.9998C63.2071 16.0633 63.5521 16.9288 64.2436 17.5948C64.9351 18.2608 65.7541 18.5938 66.7021 18.5938C67.7071 18.5938 68.5456 18.2593 69.2161 17.5888C69.6511 17.1523 69.9031 16.5448 69.9706 15.7663H66.7021V14.6848H71.0626C71.1076 14.9203 71.1271 15.1468 71.1271 15.3643Z" fill="white"/>
<path d="M78.0422 11.6054H73.9442V14.4584H77.6402V15.5399H73.9442V18.3929H78.0422V19.4999H72.7877V10.4999H78.0422V11.6054Z" fill="white"/>
<path d="M82.9185 19.4999H81.7621V11.6054H79.248V10.4999H85.4325V11.6054H82.9185V19.4999Z" fill="white"/>
<path d="M89.907 19.4999V10.4999H91.0635V19.4999H89.907Z" fill="white"/>
<path d="M96.1922 19.4999H95.0357V11.6054H92.5217V10.4999H98.7062V11.6054H96.1922V19.4999Z" fill="white"/>
<path d="M110.413 18.3374C109.528 19.2464 108.429 19.7009 107.113 19.7009C105.798 19.7009 104.698 19.2464 103.815 18.3374C102.93 17.4284 102.489 16.3154 102.489 14.9999C102.489 13.6844 102.93 12.5714 103.815 11.6624C104.698 10.7534 105.798 10.2974 107.113 10.2974C108.421 10.2974 109.519 10.7549 110.407 11.6684C111.295 12.5819 111.739 13.6919 111.739 14.9999C111.739 16.3154 111.297 17.4284 110.413 18.3374ZM104.668 17.5829C105.334 18.2579 106.149 18.5939 107.113 18.5939C108.078 18.5939 108.894 18.2564 109.558 17.5829C110.224 16.9079 110.559 16.0469 110.559 14.9999C110.559 13.9529 110.224 13.0919 109.558 12.4169C108.894 11.7419 108.078 11.4059 107.113 11.4059C106.149 11.4059 105.334 11.7434 104.668 12.4169C104.004 13.0919 103.669 13.9529 103.669 14.9999C103.669 16.0469 104.004 16.9079 104.668 17.5829Z" fill="white"/>
<path d="M113.362 19.4999V10.4999H114.769L119.143 17.5004H119.193L119.143 15.7664V10.4999H120.3V19.4999H119.092L114.516 12.1589H114.466L114.516 13.8929V19.4999H113.362Z" fill="white"/>
<path d="M71.1271 15.3643C71.1271 16.6213 70.7551 17.6218 70.0096 18.3688C69.1636 19.2568 68.0596 19.7008 66.7036 19.7008C65.4046 19.7008 64.2991 19.2508 63.3916 18.3508C62.4826 17.4493 62.0281 16.3333 62.0281 15.0013C62.0281 13.6678 62.4826 12.5518 63.3916 11.6518C64.2991 10.7503 65.4046 10.3003 66.7036 10.3003C67.3486 10.3003 67.9651 10.4263 68.5501 10.6768C69.1366 10.9288 69.6061 11.2633 69.9571 11.6818L69.1666 12.4738C68.5711 11.7613 67.7506 11.4058 66.7021 11.4058C65.7541 11.4058 64.9351 11.7388 64.2436 12.4048C63.5521 13.0708 63.2071 13.9363 63.2071 14.9998C63.2071 16.0633 63.5521 16.9288 64.2436 17.5948C64.9351 18.2608 65.7541 18.5938 66.7021 18.5938C67.7071 18.5938 68.5456 18.2593 69.2161 17.5888C69.6511 17.1523 69.9031 16.5448 69.9706 15.7663H66.7021V14.6848H71.0626C71.1076 14.9203 71.1271 15.1468 71.1271 15.3643Z" stroke="white" stroke-width="0.2" stroke-miterlimit="10"/>
<path d="M78.0422 11.6054H73.9442V14.4584H77.6402V15.5399H73.9442V18.3929H78.0422V19.4999H72.7877V10.4999H78.0422V11.6054Z" stroke="white" stroke-width="0.2" stroke-miterlimit="10"/>
<path d="M82.9185 19.4999H81.7621V11.6054H79.248V10.4999H85.4325V11.6054H82.9185V19.4999Z" stroke="white" stroke-width="0.2" stroke-miterlimit="10"/>
<path d="M89.907 19.4999V10.4999H91.0635V19.4999H89.907Z" stroke="white" stroke-width="0.2" stroke-miterlimit="10"/>
<path d="M96.1922 19.4999H95.0357V11.6054H92.5217V10.4999H98.7062V11.6054H96.1922V19.4999Z" stroke="white" stroke-width="0.2" stroke-miterlimit="10"/>
<path d="M110.413 18.3374C109.528 19.2464 108.429 19.7009 107.113 19.7009C105.798 19.7009 104.698 19.2464 103.815 18.3374C102.93 17.4284 102.489 16.3154 102.489 14.9999C102.489 13.6844 102.93 12.5714 103.815 11.6624C104.698 10.7534 105.798 10.2974 107.113 10.2974C108.421 10.2974 109.519 10.7549 110.407 11.6684C111.295 12.5819 111.739 13.6919 111.739 14.9999C111.739 16.3154 111.297 17.4284 110.413 18.3374ZM104.668 17.5829C105.334 18.2579 106.149 18.5939 107.113 18.5939C108.078 18.5939 108.894 18.2564 109.558 17.5829C110.224 16.9079 110.559 16.0469 110.559 14.9999C110.559 13.9529 110.224 13.0919 109.558 12.4169C108.894 11.7419 108.078 11.4059 107.113 11.4059C106.149 11.4059 105.334 11.7434 104.668 12.4169C104.004 13.0919 103.669 13.9529 103.669 14.9999C103.669 16.0469 104.004 16.9079 104.668 17.5829Z" stroke="white" stroke-width="0.2" stroke-miterlimit="10"/>
<path d="M113.362 19.4999V10.4999H114.769L119.143 17.5004H119.193L119.143 15.7664V10.4999H120.3V19.4999H119.092L114.516 12.1589H114.466L114.516 13.8929V19.4999H113.362Z" stroke="white" stroke-width="0.2" stroke-miterlimit="10"/>
<g filter="url(#filter0_ii_83_1112)">
<path d="M15.654 11.3073C15.2175 11.7693 14.9595 12.4863 14.9595 13.4148V46.5888C14.9595 47.5187 15.2175 48.2343 15.654 48.6963L15.765 48.8043L34.3485 30.2208V30.0018V29.7828L15.765 11.1978L15.654 11.3073Z" fill="url(#paint0_linear_83_1112)"/>
<path d="M40.5419 36.4169L34.3484 30.2204V30.0014V29.7824L40.5434 23.5874L40.683 23.6669L48.0224 27.8369C50.1179 29.0279 50.1179 30.9764 48.0224 32.1689L40.683 36.3389L40.5419 36.4169Z" fill="url(#paint1_linear_83_1112)"/>
<g filter="url(#filter1_i_83_1112)">
<path d="M40.683 36.3375L34.347 30.0015L15.654 48.696C16.344 49.428 17.4855 49.518 18.771 48.789L40.683 36.3375Z" fill="url(#paint2_linear_83_1112)"/>
</g>
<path d="M40.683 23.6655L18.771 11.2155C17.4855 10.485 16.344 10.5765 15.654 11.3085L34.3485 30.003L40.683 23.6655Z" fill="url(#paint3_linear_83_1112)"/>
</g>
<rect x="0.5" y="0.5" width="201.5" height="59" rx="4.5" stroke="#A6A6A6"/>
<rect x="222.5" y="0.5" width="179" height="59" rx="6.5" fill="#0C0D10"/>
<path d="M344.289 28.8015V32.2381H342.135V34.4917H344.289V42.1492C344.289 44.7639 345.472 45.8098 348.448 45.8098C348.97 45.8098 349.469 45.7476 349.904 45.6729V43.4441C349.531 43.4815 349.294 43.5064 348.883 43.5064C347.551 43.5064 346.966 42.8838 346.966 41.4644V34.4917H349.904V32.2381H346.966V28.8015H344.289Z" fill="white"/>
<path d="M357.485 45.9966C361.445 45.9966 363.873 43.3445 363.873 38.9492C363.873 34.5789 361.432 31.9143 357.485 31.9143C353.526 31.9143 351.085 34.5789 351.085 38.9492C351.085 43.3445 353.513 45.9966 357.485 45.9966ZM357.485 43.6184C355.157 43.6184 353.849 41.9126 353.849 38.9492C353.849 36.0108 355.157 34.2925 357.485 34.2925C359.801 34.2925 361.121 36.0108 361.121 38.9492C361.121 41.9002 359.801 43.6184 357.485 43.6184Z" fill="white"/>
<path d="M365.95 45.7351H368.627V37.729C368.627 35.824 370.059 34.5415 372.088 34.5415C372.561 34.5415 373.358 34.6287 373.582 34.7034V32.0637C373.296 31.989 372.786 31.9517 372.387 31.9517C370.619 31.9517 369.112 32.9229 368.726 34.2551H368.527V32.1758H365.95V45.7351Z" fill="white"/>
<path d="M380.229 34.1929C382.209 34.1929 383.504 35.575 383.566 37.7041H376.718C376.868 35.5874 378.25 34.1929 380.229 34.1929ZM383.554 42.0745C383.056 43.1328 381.948 43.718 380.329 43.718C378.187 43.718 376.805 42.2114 376.718 39.8333V39.6839H386.293V38.75C386.293 34.4917 384.015 31.9143 380.242 31.9143C376.419 31.9143 373.991 34.666 373.991 38.999C373.991 43.3321 376.37 45.9966 380.254 45.9966C383.355 45.9966 385.521 44.5025 386.131 42.0745H383.554Z" fill="white"/>
<path d="M326.733 40.7279C326.94 44.0574 329.715 46.1868 333.844 46.1868C338.258 46.1868 341.02 43.9542 341.02 40.3923C341.02 37.5919 339.445 36.0433 335.625 35.1528L333.573 34.6495C331.147 34.0817 330.166 33.3203 330.166 31.991C330.166 30.3133 331.689 29.2164 333.973 29.2164C336.141 29.2164 337.638 30.2875 337.909 32.0039H340.723C340.555 28.8679 337.793 26.6611 334.012 26.6611C329.947 26.6611 327.237 28.8679 327.237 32.1846C327.237 34.9205 328.772 36.5466 332.141 37.3338L334.541 37.9145C337.006 38.4953 338.09 39.347 338.09 40.7666C338.09 42.4185 336.387 43.6187 334.064 43.6187C331.573 43.6187 329.844 42.4959 329.598 40.7279H326.733Z" fill="white"/>
<path d="M299.002 31.9517C297.16 31.9517 295.566 32.8731 294.744 34.417H294.545V32.1758H291.968V50.2425H294.645V43.6807H294.856C295.566 45.1126 297.097 45.9592 299.027 45.9592C302.451 45.9592 304.63 43.2573 304.63 38.9492C304.63 34.6411 302.451 31.9517 299.002 31.9517ZM298.243 43.5562C296.002 43.5562 294.595 41.7881 294.595 38.9617C294.595 36.1228 296.002 34.3548 298.255 34.3548C300.521 34.3548 301.879 36.0855 301.879 38.9492C301.879 41.8255 300.521 43.5562 298.243 43.5562Z" fill="white"/>
<path d="M313.998 31.9517C312.155 31.9517 310.561 32.8731 309.739 34.417H309.54V32.1758H306.963V50.2425H309.64V43.6807H309.851C310.561 45.1126 312.093 45.9592 314.023 45.9592C317.447 45.9592 319.626 43.2573 319.626 38.9492C319.626 34.6411 317.447 31.9517 313.998 31.9517ZM313.238 43.5562C310.997 43.5562 309.59 41.7881 309.59 38.9617C309.59 36.1228 310.997 34.3548 313.251 34.3548C315.517 34.3548 316.874 36.0855 316.874 38.9492C316.874 41.8255 315.517 43.5562 313.238 43.5562Z" fill="white"/>
<path d="M287.165 45.7351H290.236L283.512 27.1128H280.402L273.679 45.7351H276.647L278.363 40.7924H285.461L287.165 45.7351ZM281.809 30.494H282.028L284.725 38.3662H279.099L281.809 30.494Z" fill="white"/>
<path d="M275.477 13.0665V22.05H278.72C281.397 22.05 282.947 20.4003 282.947 17.5303C282.947 14.7039 281.385 13.0665 278.72 13.0665H275.477ZM276.871 14.3365H278.565C280.426 14.3365 281.528 15.5194 281.528 17.549C281.528 19.6096 280.445 20.78 278.565 20.78H276.871V14.3365Z" fill="white"/>
<path d="M287.695 22.1808C289.675 22.1808 290.889 20.8547 290.889 18.6571C290.889 16.4719 289.669 15.1396 287.695 15.1396C285.715 15.1396 284.495 16.4719 284.495 18.6571C284.495 20.8547 285.709 22.1808 287.695 22.1808ZM287.695 20.9917C286.531 20.9917 285.877 20.1388 285.877 18.6571C285.877 17.1879 286.531 16.3287 287.695 16.3287C288.853 16.3287 289.513 17.1879 289.513 18.6571C289.513 20.1326 288.853 20.9917 287.695 20.9917Z" fill="white"/>
<path d="M301.227 15.2704H299.888L298.681 20.4438H298.575L297.18 15.2704H295.898L294.503 20.4438H294.404L293.19 15.2704H291.833L293.7 22.05H295.076L296.471 17.0571H296.576L297.977 22.05H299.366L301.227 15.2704Z" fill="white"/>
<path d="M302.768 22.05H304.107V18.0844C304.107 17.026 304.736 16.3661 305.726 16.3661C306.715 16.3661 307.189 16.9077 307.189 17.9972V22.05H308.527V17.661C308.527 16.0486 307.693 15.1396 306.18 15.1396C305.159 15.1396 304.487 15.5941 304.157 16.3474H304.057V15.2704H302.768V22.05Z" fill="white"/>
<path d="M310.635 22.05H311.974V12.6245H310.635V22.05Z" fill="white"/>
<path d="M317.008 22.1808C318.987 22.1808 320.201 20.8547 320.201 18.6571C320.201 16.4719 318.981 15.1396 317.008 15.1396C315.028 15.1396 313.808 16.4719 313.808 18.6571C313.808 20.8547 315.022 22.1808 317.008 22.1808ZM317.008 20.9917C315.843 20.9917 315.19 20.1388 315.19 18.6571C315.19 17.1879 315.843 16.3287 317.008 16.3287C318.166 16.3287 318.825 17.1879 318.825 18.6571C318.825 20.1326 318.166 20.9917 317.008 20.9917Z" fill="white"/>
<path d="M324.189 21.0353C323.461 21.0353 322.932 20.6804 322.932 20.0703C322.932 19.4727 323.355 19.1552 324.289 19.0929L325.945 18.9871V19.5536C325.945 20.394 325.198 21.0353 324.189 21.0353ZM323.847 22.1621C324.737 22.1621 325.478 21.7761 325.883 21.0975H325.989V22.05H327.277V17.4182C327.277 15.9863 326.319 15.1396 324.619 15.1396C323.081 15.1396 321.986 15.8867 321.849 17.0509H323.144C323.293 16.5715 323.81 16.2976 324.557 16.2976C325.472 16.2976 325.945 16.7023 325.945 17.4182V18.0034L324.108 18.1093C322.496 18.2089 321.587 18.9124 321.587 20.1326C321.587 21.3715 322.54 22.1621 323.847 22.1621Z" fill="white"/>
<path d="M331.819 22.1621C332.753 22.1621 333.544 21.7201 333.949 20.9792H334.054V22.05H335.337V12.6245H333.998V16.3474H333.899C333.532 15.6003 332.747 15.1583 331.819 15.1583C330.107 15.1583 329.006 16.5155 329.006 18.6571C329.006 20.8049 330.095 22.1621 331.819 22.1621ZM332.199 16.3599C333.32 16.3599 334.023 17.2501 334.023 18.6633C334.023 20.0828 333.326 20.9606 332.199 20.9606C331.066 20.9606 330.388 20.0952 330.388 18.6571C330.388 17.2314 331.072 16.3599 332.199 16.3599Z" fill="white"/>
<path d="M344.017 22.1808C345.996 22.1808 347.21 20.8547 347.21 18.6571C347.21 16.4719 345.99 15.1396 344.017 15.1396C342.037 15.1396 340.817 16.4719 340.817 18.6571C340.817 20.8547 342.031 22.1808 344.017 22.1808ZM344.017 20.9917C342.852 20.9917 342.199 20.1388 342.199 18.6571C342.199 17.1879 342.852 16.3287 344.017 16.3287C345.175 16.3287 345.835 17.1879 345.835 18.6571C345.835 20.1326 345.175 20.9917 344.017 20.9917Z" fill="white"/>
<path d="M348.982 22.05H350.321V18.0844C350.321 17.026 350.949 16.3661 351.939 16.3661C352.929 16.3661 353.402 16.9077 353.402 17.9972V22.05H354.741V17.661C354.741 16.0486 353.907 15.1396 352.394 15.1396C351.373 15.1396 350.7 15.5941 350.37 16.3474H350.271V15.2704H348.982V22.05Z" fill="white"/>
<path d="M360.905 13.5833V15.3015H359.828V16.4283H360.905V20.2571C360.905 21.5645 361.497 22.0874 362.985 22.0874C363.246 22.0874 363.495 22.0563 363.713 22.0189V20.9045C363.526 20.9232 363.408 20.9357 363.203 20.9357C362.537 20.9357 362.244 20.6244 362.244 19.9147V16.4283H363.713V15.3015H362.244V13.5833H360.905Z" fill="white"/>
<path d="M365.51 22.05H366.848V18.0906C366.848 17.0634 367.458 16.3723 368.554 16.3723C369.5 16.3723 370.005 16.9202 370.005 18.0034V22.05H371.343V17.6735C371.343 16.061 370.453 15.1459 369.009 15.1459C367.988 15.1459 367.272 15.6003 366.942 16.3599H366.836V12.6245H365.51V22.05Z" fill="white"/>
<path d="M376.172 16.2789C377.162 16.2789 377.809 16.97 377.84 18.0345H374.416C374.491 16.9762 375.182 16.2789 376.172 16.2789ZM377.834 20.2197C377.585 20.7489 377.031 21.0415 376.222 21.0415C375.151 21.0415 374.46 20.2882 374.416 19.0991V19.0244H379.204V18.5575C379.204 16.4283 378.064 15.1396 376.178 15.1396C374.267 15.1396 373.053 16.5155 373.053 18.682C373.053 20.8485 374.242 22.1808 376.184 22.1808C377.734 22.1808 378.818 21.4337 379.123 20.2197H377.834Z" fill="white"/>
<path d="M259.153 30.4511C259.186 27.9296 260.54 25.5437 262.688 24.223C261.333 22.2875 259.063 21.0604 256.702 20.9865C254.183 20.7221 251.741 22.4937 250.457 22.4937C249.149 22.4937 247.173 21.0127 245.044 21.0565C242.271 21.1461 239.685 22.7232 238.335 25.1483C235.434 30.171 237.598 37.5525 240.377 41.6125C241.767 43.6005 243.392 45.8212 245.518 45.7424C247.599 45.6561 248.376 44.4157 250.887 44.4157C253.376 44.4157 254.105 45.7424 256.274 45.6923C258.507 45.6561 259.913 43.6955 261.255 41.6886C262.254 40.2721 263.022 38.7065 263.532 37.0499C260.909 35.9402 259.157 33.2998 259.153 30.4511Z" fill="white"/>
<path d="M255.056 18.3165C256.273 16.8552 256.873 14.9769 256.728 13.0806C254.868 13.2759 253.15 14.1647 251.916 15.57C250.71 16.943 250.082 18.7882 250.201 20.6121C252.061 20.6312 253.89 19.7665 255.056 18.3165Z" fill="white"/>
<rect x="222.5" y="0.5" width="179" height="59" rx="6.5" stroke="#A6A6A6"/>
<defs>
<filter id="filter0_ii_83_1112" x="14.9595" y="10.7114" width="34.6346" height="38.5811" filterUnits="userSpaceOnUse" color-interpolation-filters="sRGB">
<feFlood flood-opacity="0" result="BackgroundImageFix"/>
<feBlend mode="normal" in="SourceGraphic" in2="BackgroundImageFix" result="shape"/>
<feColorMatrix in="SourceAlpha" type="matrix" values="0 0 0 0 0 0 0 0 0 0 0 0 0 0 0 0 0 0 127 0" result="hardAlpha"/>
<feOffset dy="-0.15"/>
<feComposite in2="hardAlpha" operator="arithmetic" k2="-1" k3="1"/>
<feColorMatrix type="matrix" values="0 0 0 0 0 0 0 0 0 0 0 0 0 0 0 0 0 0 0.12 0"/>
<feBlend mode="normal" in2="shape" result="effect1_innerShadow_83_1112"/>
<feColorMatrix in="SourceAlpha" type="matrix" values="0 0 0 0 0 0 0 0 0 0 0 0 0 0 0 0 0 0 127 0" result="hardAlpha"/>
<feOffset dy="0.15"/>
<feComposite in2="hardAlpha" operator="arithmetic" k2="-1" k3="1"/>
<feColorMatrix type="matrix" values="0 0 0 0 1 0 0 0 0 1 0 0 0 0 1 0 0 0 0.25 0"/>
<feBlend mode="normal" in2="effect1_innerShadow_83_1112" result="effect2_innerShadow_83_1112"/>
</filter>
<filter id="filter1_i_83_1112" x="15.654" y="30.0015" width="25.029" height="19.291" filterUnits="userSpaceOnUse" color-interpolation-filters="sRGB">
<feFlood flood-opacity="0" result="BackgroundImageFix"/>
<feBlend mode="normal" in="SourceGraphic" in2="BackgroundImageFix" result="shape"/>
<feColorMatrix in="SourceAlpha" type="matrix" values="0 0 0 0 0 0 0 0 0 0 0 0 0 0 0 0 0 0 127 0" result="hardAlpha"/>
<feOffset dy="-0.15"/>
<feComposite in2="hardAlpha" operator="arithmetic" k2="-1" k3="1"/>
<feColorMatrix type="matrix" values="0 0 0 0 0 0 0 0 0 0 0 0 0 0 0 0 0 0 0.08 0"/>
<feBlend mode="normal" in2="shape" result="effect1_innerShadow_83_1112"/>
</filter>
<linearGradient id="paint0_linear_83_1112" x1="32.7012" y1="13.0638" x2="7.52817" y2="38.2368" gradientUnits="userSpaceOnUse">
<stop stop-color="#00A0FF"/>
<stop offset="0.0066" stop-color="#00A1FF"/>
<stop offset="0.2601" stop-color="#00BEFF"/>
<stop offset="0.5122" stop-color="#00D2FF"/>
<stop offset="0.7604" stop-color="#00DFFF"/>
<stop offset="1" stop-color="#00E3FF"/>
</linearGradient>
<linearGradient id="paint1_linear_83_1112" x1="50.7502" y1="30.0014" x2="14.4564" y2="30.0014" gradientUnits="userSpaceOnUse">
<stop stop-color="#FFE000"/>
<stop offset="0.4087" stop-color="#FFBD00"/>
<stop offset="0.7754" stop-color="#FFA500"/>
<stop offset="1" stop-color="#FF9C00"/>
</linearGradient>
<linearGradient id="paint2_linear_83_1112" x1="37.2421" y1="33.4423" x2="3.1044" y2="67.5801" gradientUnits="userSpaceOnUse">
<stop stop-color="#FF3A44"/>
<stop offset="1" stop-color="#C31162"/>
</linearGradient>
<linearGradient id="paint3_linear_83_1112" x1="10.9461" y1="0.26524" x2="26.1895" y2="15.5087" gradientUnits="userSpaceOnUse">
<stop stop-color="#32A071"/>
<stop offset="0.0685" stop-color="#2DA771"/>
<stop offset="0.4762" stop-color="#15CF74"/>
<stop offset="0.8009" stop-color="#06E775"/>
<stop offset="1" stop-color="#00F076"/>
</linearGradient>
</defs>
</svg>
