<svg width="453" height="205" viewBox="0 0 453 205" fill="none" xmlns="http://www.w3.org/2000/svg">
<path d="M49.134 35.872V48.23C48.3447 49.1673 47.2593 50.1293 45.878 51.116C44.546 52.1027 42.9427 53.04 41.068 53.928C39.1933 54.7667 37.146 55.4573 34.926 56C32.706 56.4933 30.3627 56.74 27.896 56.74C23.8507 56.74 20.1507 56.0987 16.796 54.816C13.4907 53.5333 10.6293 51.708 8.212 49.34C5.844 46.9227 4.01867 44.0613 2.736 40.756C1.45333 37.4507 0.812 33.7753 0.812 29.73C0.812 25.7833 1.478 22.1573 2.81 18.852C4.142 15.5467 6.01667 12.6853 8.434 10.268C10.8513 7.85066 13.6633 6.00066 16.87 4.718C20.0767 3.386 23.53 2.72 27.23 2.72C30.6833 2.72 33.6187 3.26266 36.036 4.348C38.4533 5.384 40.4267 6.864 41.956 8.788C43.5347 10.6627 44.7187 12.8827 45.508 15.448L42.252 14.412L43.51 3.46H48.024V19.37H43.14C42.4493 17.002 41.438 14.93 40.106 13.154C38.8233 11.378 37.22 9.972 35.296 8.936C33.4213 7.9 31.152 7.382 28.488 7.382C26.2187 7.382 24.1467 7.9 22.272 8.936C20.3973 9.92266 18.794 11.378 17.462 13.302C16.13 15.226 15.094 17.5693 14.354 20.332C13.614 23.0947 13.244 26.2273 13.244 29.73C13.244 33.3807 13.5893 36.612 14.28 39.424C14.9707 42.236 15.982 44.5793 17.314 46.454C18.646 48.3287 20.2493 49.7593 22.124 50.746C23.9987 51.6833 26.12 52.152 28.488 52.152C30.264 52.152 31.7933 51.9547 33.076 51.56C34.3587 51.116 35.4193 50.6227 36.258 50.08C37.146 49.488 37.7873 48.97 38.182 48.526V35.872C38.182 34.836 37.6887 34.1453 36.702 33.8C35.7647 33.4547 34.556 33.282 33.076 33.282H32.41V29.73H53.574V33.282H53.13C52.0447 33.282 51.1073 33.4547 50.318 33.8C49.5287 34.1453 49.134 34.836 49.134 35.872ZM70.3009 37.204C70.3009 39.6707 70.5476 41.8413 71.0409 43.716C71.5342 45.5907 72.2496 47.1693 73.1869 48.452C74.1242 49.6853 75.2836 50.6227 76.6649 51.264C78.0462 51.9053 79.6249 52.226 81.4009 52.226C83.2756 52.226 84.9036 51.8807 86.2849 51.19C87.7156 50.4993 88.9242 49.5867 89.9109 48.452C90.9469 47.3173 91.8102 46.1333 92.5009 44.9L96.0529 47.564C95.1156 49.34 93.8822 50.9433 92.3529 52.374C90.8729 53.7553 89.0969 54.8407 87.0249 55.63C85.0022 56.37 82.6096 56.74 79.8469 56.74C75.7522 56.74 72.1262 55.9507 68.9689 54.372C65.8609 52.7933 63.4189 50.524 61.6429 47.564C59.9162 44.604 59.0529 41.1013 59.0529 37.056C59.0529 33.1093 59.8916 29.656 61.5689 26.696C63.2956 23.6867 65.6142 21.3433 68.5249 19.666C71.4849 17.9887 74.8149 17.15 78.5149 17.15C81.4256 17.15 83.9909 17.594 86.2109 18.482C88.4802 19.37 90.3796 20.702 91.9089 22.478C93.4382 24.2047 94.5976 26.3507 95.3869 28.916C96.1762 31.4813 96.5709 34.4907 96.5709 37.944H67.4149L67.3409 33.874H87.7649L85.9889 35.354C85.9396 32.7887 85.7669 30.618 85.4709 28.842C85.1749 27.066 84.7309 25.6353 84.1389 24.55C83.5469 23.4647 82.7822 22.6753 81.8449 22.182C80.9569 21.6887 79.9209 21.442 78.7369 21.442C77.5036 21.442 76.3689 21.7627 75.3329 22.404C74.2969 22.996 73.4089 23.958 72.6689 25.29C71.9289 26.5727 71.3369 28.2007 70.8929 30.174C70.4982 32.1473 70.3009 34.4907 70.3009 37.204ZM99.4008 21.96V18.26H99.6228C100.905 18.26 101.991 18.1613 102.879 17.964C103.767 17.7173 104.457 17.3227 104.951 16.78C105.444 16.188 105.715 15.3987 105.765 14.412L110.723 17.89H125.745V21.96H99.4008ZM116.051 44.234C116.051 46.158 116.273 47.712 116.717 48.896C117.161 50.0307 117.802 50.8447 118.641 51.338C119.479 51.8313 120.491 52.078 121.675 52.078C122.711 52.078 123.648 51.9547 124.487 51.708C125.325 51.4613 125.942 51.2887 126.337 51.19V55.408C125.942 55.6547 125.375 55.8767 124.635 56.074C123.895 56.2713 123.056 56.4193 122.119 56.518C121.231 56.666 120.219 56.74 119.085 56.74C116.421 56.74 114.003 56.3453 111.833 55.556C109.662 54.7173 107.935 53.3607 106.653 51.486C105.419 49.562 104.803 46.972 104.803 43.716V18.852L105.617 18.334L106.061 7.826H116.051V44.234ZM147.119 17.89H174.647V21.96H147.119V17.89ZM177.089 1.018V5.532C176.595 5.33466 175.855 5.11266 174.869 4.866C173.931 4.61933 172.871 4.496 171.687 4.496C170.207 4.496 168.949 4.76733 167.913 5.31C166.926 5.85266 166.161 6.76533 165.619 8.048C165.125 9.28133 164.879 10.9587 164.879 13.08V51.56C164.879 51.8067 165.15 52.004 165.693 52.152C166.285 52.3 167.025 52.3987 167.913 52.448C168.85 52.4973 169.861 52.522 170.947 52.522H171.687V56H147.711V52.522H148.451C150.128 52.522 151.411 52.3493 152.299 52.004C153.236 51.6587 153.705 51.0173 153.705 50.08V14.338C153.705 10.8847 154.445 8.14667 155.925 6.124C157.454 4.052 159.477 2.54733 161.993 1.61C164.509 0.672666 167.345 0.203999 170.503 0.203999C171.884 0.203999 173.167 0.277998 174.351 0.425997C175.535 0.573998 176.447 0.771331 177.089 1.018ZM218.506 36.982C218.506 40.8793 217.643 44.3327 215.916 47.342C214.189 50.302 211.772 52.6207 208.664 54.298C205.556 55.926 201.905 56.74 197.712 56.74C193.568 56.74 189.917 55.926 186.76 54.298C183.652 52.6207 181.235 50.302 179.508 47.342C177.781 44.3327 176.918 40.8793 176.918 36.982C176.918 34.0713 177.411 31.4073 178.398 28.99C179.385 26.5233 180.791 24.4267 182.616 22.7C184.491 20.924 186.686 19.5673 189.202 18.63C191.767 17.6433 194.604 17.15 197.712 17.15C200.82 17.15 203.632 17.6433 206.148 18.63C208.713 19.5673 210.909 20.924 212.734 22.7C214.609 24.4267 216.039 26.5233 217.026 28.99C218.013 31.4073 218.506 34.0713 218.506 36.982ZM188.462 36.982C188.462 40.3367 188.807 43.1733 189.498 45.492C190.238 47.8107 191.299 49.562 192.68 50.746C194.061 51.93 195.739 52.522 197.712 52.522C199.735 52.522 201.412 51.93 202.744 50.746C204.125 49.562 205.161 47.8107 205.852 45.492C206.592 43.1733 206.962 40.3367 206.962 36.982C206.962 33.578 206.592 30.7413 205.852 28.472C205.161 26.1533 204.125 24.402 202.744 23.218C201.412 22.034 199.735 21.442 197.712 21.442C195.739 21.442 194.061 22.034 192.68 23.218C191.299 24.402 190.238 26.1533 189.498 28.472C188.807 30.7413 188.462 33.578 188.462 36.982ZM265.334 36.982C265.334 40.8793 264.471 44.3327 262.744 47.342C261.018 50.302 258.6 52.6207 255.492 54.298C252.384 55.926 248.734 56.74 244.54 56.74C240.396 56.74 236.746 55.926 233.588 54.298C230.48 52.6207 228.063 50.302 226.336 47.342C224.61 44.3327 223.746 40.8793 223.746 36.982C223.746 34.0713 224.24 31.4073 225.226 28.99C226.213 26.5233 227.619 24.4267 229.444 22.7C231.319 20.924 233.514 19.5673 236.03 18.63C238.596 17.6433 241.432 17.15 244.54 17.15C247.648 17.15 250.46 17.6433 252.976 18.63C255.542 19.5673 257.737 20.924 259.562 22.7C261.437 24.4267 262.868 26.5233 263.854 28.99C264.841 31.4073 265.334 34.0713 265.334 36.982ZM235.29 36.982C235.29 40.3367 235.636 43.1733 236.326 45.492C237.066 47.8107 238.127 49.562 239.508 50.746C240.89 51.93 242.567 52.522 244.54 52.522C246.563 52.522 248.24 51.93 249.572 50.746C250.954 49.562 251.99 47.8107 252.68 45.492C253.42 43.1733 253.79 40.3367 253.79 36.982C253.79 33.578 253.42 30.7413 252.68 28.472C251.99 26.1533 250.954 24.402 249.572 23.218C248.24 22.034 246.563 21.442 244.54 21.442C242.567 21.442 240.89 22.034 239.508 23.218C238.127 24.402 237.066 26.1533 236.326 28.472C235.636 30.7413 235.29 33.578 235.29 36.982ZM310.682 50.08C310.682 50.968 311.077 51.56 311.866 51.856C312.656 52.1027 313.716 52.2753 315.048 52.374L315.344 52.448V56H300.248V47.268L299.508 47.786V7.604C299.508 7.012 299.36 6.54333 299.064 6.198C298.768 5.85267 298.3 5.58133 297.658 5.384C297.066 5.18667 296.302 5.014 295.364 4.866L294.624 4.718V1.092H310.682V50.08ZM288.186 17.15C290.554 17.15 292.626 17.5447 294.402 18.334C296.178 19.1233 297.732 20.332 299.064 21.96C300.446 23.5387 301.679 25.5613 302.764 28.028L301.728 32.172C300.742 29.952 299.706 28.1267 298.62 26.696C297.584 25.216 296.45 24.106 295.216 23.366C293.983 22.626 292.552 22.256 290.924 22.256C289.444 22.256 288.162 22.6013 287.076 23.292C285.991 23.9827 285.078 24.994 284.338 26.326C283.598 27.6087 283.031 29.1873 282.636 31.062C282.291 32.8873 282.118 34.984 282.118 37.352C282.118 39.6213 282.291 41.644 282.636 43.42C283.031 45.1467 283.574 46.6267 284.264 47.86C284.955 49.044 285.818 49.9567 286.854 50.598C287.89 51.19 289.099 51.486 290.48 51.486C292.108 51.486 293.539 51.0913 294.772 50.302C296.055 49.5127 297.239 48.3287 298.324 46.75C299.41 45.122 300.495 43.124 301.58 40.756L302.468 45.418C301.186 47.934 299.854 50.0307 298.472 51.708C297.091 53.3853 295.537 54.6433 293.81 55.482C292.084 56.3207 290.012 56.74 287.594 56.74C284.24 56.74 281.28 55.9507 278.714 54.372C276.149 52.744 274.151 50.4747 272.72 47.564C271.29 44.604 270.574 41.2 270.574 37.352C270.574 33.356 271.314 29.8533 272.794 26.844C274.274 23.7853 276.346 21.4173 279.01 19.74C281.724 18.0133 284.782 17.15 288.186 17.15ZM40.698 124.08C40.698 124.968 41.0927 125.56 41.882 125.856C42.6713 126.103 43.732 126.275 45.064 126.374L45.36 126.448V130H30.264V121.268L29.524 121.786V81.604C29.524 81.012 29.376 80.5433 29.08 80.198C28.784 79.8527 28.3153 79.5813 27.674 79.384C27.082 79.1867 26.3173 79.014 25.38 78.866L24.64 78.718V75.092H40.698V124.08ZM18.202 91.15C20.57 91.15 22.642 91.5447 24.418 92.334C26.194 93.1233 27.748 94.332 29.08 95.96C30.4613 97.5387 31.6947 99.5613 32.78 102.028L31.744 106.172C30.7573 103.952 29.7213 102.127 28.636 100.696C27.6 99.216 26.4653 98.106 25.232 97.366C23.9987 96.626 22.568 96.256 20.94 96.256C19.46 96.256 18.1773 96.6013 17.092 97.292C16.0067 97.9827 15.094 98.994 14.354 100.326C13.614 101.609 13.0467 103.187 12.652 105.062C12.3067 106.887 12.134 108.984 12.134 111.352C12.134 113.621 12.3067 115.644 12.652 117.42C13.0467 119.147 13.5893 120.627 14.28 121.86C14.9707 123.044 15.834 123.957 16.87 124.598C17.906 125.19 19.1147 125.486 20.496 125.486C22.124 125.486 23.5547 125.091 24.788 124.302C26.0707 123.513 27.2547 122.329 28.34 120.75C29.4253 119.122 30.5107 117.124 31.596 114.756L32.484 119.418C31.2013 121.934 29.8693 124.031 28.488 125.708C27.1067 127.385 25.5527 128.643 23.826 129.482C22.0993 130.321 20.0273 130.74 17.61 130.74C14.2553 130.74 11.2953 129.951 8.73 128.372C6.16467 126.744 4.16667 124.475 2.736 121.564C1.30533 118.604 0.59 115.2 0.59 111.352C0.59 107.356 1.33 103.853 2.81 100.844C4.29 97.7853 6.362 95.4173 9.026 93.74C11.7393 92.0133 14.798 91.15 18.202 91.15ZM60.4728 111.204C60.4728 113.671 60.7194 115.841 61.2128 117.716C61.7061 119.591 62.4214 121.169 63.3588 122.452C64.2961 123.685 65.4554 124.623 66.8368 125.264C68.2181 125.905 69.7968 126.226 71.5728 126.226C73.4474 126.226 75.0754 125.881 76.4568 125.19C77.8874 124.499 79.0961 123.587 80.0828 122.452C81.1188 121.317 81.9821 120.133 82.6728 118.9L86.2248 121.564C85.2874 123.34 84.0541 124.943 82.5248 126.374C81.0448 127.755 79.2688 128.841 77.1968 129.63C75.1741 130.37 72.7814 130.74 70.0188 130.74C65.9241 130.74 62.2981 129.951 59.1408 128.372C56.0328 126.793 53.5908 124.524 51.8148 121.564C50.0881 118.604 49.2248 115.101 49.2248 111.056C49.2248 107.109 50.0634 103.656 51.7408 100.696C53.4674 97.6867 55.7861 95.3433 58.6968 93.666C61.6568 91.9887 64.9868 91.15 68.6868 91.15C71.5974 91.15 74.1628 91.594 76.3828 92.482C78.6521 93.37 80.5514 94.702 82.0808 96.478C83.6101 98.2047 84.7694 100.351 85.5588 102.916C86.3481 105.481 86.7428 108.491 86.7428 111.944H57.5868L57.5128 107.874H77.9368L76.1608 109.354C76.1114 106.789 75.9388 104.618 75.6428 102.842C75.3468 101.066 74.9028 99.6353 74.3108 98.55C73.7188 97.4647 72.9541 96.6753 72.0168 96.182C71.1288 95.6887 70.0928 95.442 68.9088 95.442C67.6754 95.442 66.5408 95.7627 65.5048 96.404C64.4688 96.996 63.5808 97.958 62.8408 99.29C62.1008 100.573 61.5088 102.201 61.0648 104.174C60.6701 106.147 60.4728 108.491 60.4728 111.204ZM106.527 75.092V124.154C106.527 125.141 106.947 125.782 107.785 126.078C108.624 126.374 109.709 126.522 111.041 126.522H111.115V130H90.6914V126.522H90.7654C92.0974 126.522 93.1827 126.374 94.0214 126.078C94.86 125.782 95.2794 125.141 95.2794 124.154V81.604C95.2794 81.012 95.1314 80.568 94.8354 80.272C94.5887 79.9267 94.1694 79.6553 93.5774 79.458C93.0347 79.2113 92.2947 79.014 91.3574 78.866L90.6174 78.718V75.092H106.527ZM124.532 85.452C122.608 85.452 121.054 84.9587 119.87 83.972C118.736 82.9853 118.168 81.6287 118.168 79.902C118.168 78.1753 118.736 76.8187 119.87 75.832C121.054 74.8453 122.608 74.352 124.532 74.352C126.456 74.352 127.986 74.8453 129.12 75.832C130.304 76.8187 130.896 78.1753 130.896 79.902C130.896 81.6287 130.304 82.9853 129.12 83.972C127.986 84.9587 126.456 85.452 124.532 85.452ZM130.304 91.89V124.154C130.304 125.141 130.724 125.782 131.562 126.078C132.45 126.374 133.536 126.522 134.818 126.522H134.966V130H114.468V126.522H114.542C115.874 126.522 116.96 126.374 117.798 126.078C118.686 125.782 119.13 125.141 119.13 124.154V98.402C119.13 97.514 118.81 96.8973 118.168 96.552C117.527 96.2067 116.54 95.9107 115.208 95.664L114.468 95.516V91.89H130.304ZM169.627 96.848C169.627 96.552 169.38 96.3053 168.887 96.108C168.393 95.8613 167.777 95.6887 167.037 95.59C166.297 95.442 165.532 95.368 164.743 95.368H164.595V91.89H178.063V95.368H177.915C177.323 95.368 176.731 95.4667 176.139 95.664C175.596 95.8613 175.103 96.2067 174.659 96.7C174.264 97.144 173.919 97.7607 173.623 98.55L162.153 130H152.533L140.693 97.884C140.495 97.1933 140.199 96.6753 139.805 96.33C139.41 95.9847 138.941 95.738 138.399 95.59C137.856 95.442 137.239 95.368 136.549 95.368H136.475V91.89H156.751V95.368H156.603C155.813 95.368 155.024 95.3927 154.235 95.442C153.445 95.4913 152.779 95.5653 152.237 95.664C151.694 95.7133 151.423 95.8367 151.423 96.034L161.561 124.672L159.637 124.746L169.627 96.848ZM190.695 111.204C190.695 113.671 190.942 115.841 191.435 117.716C191.929 119.591 192.644 121.169 193.581 122.452C194.519 123.685 195.678 124.623 197.059 125.264C198.441 125.905 200.019 126.226 201.795 126.226C203.67 126.226 205.298 125.881 206.679 125.19C208.11 124.499 209.319 123.587 210.305 122.452C211.341 121.317 212.205 120.133 212.895 118.9L216.447 121.564C215.51 123.34 214.277 124.943 212.747 126.374C211.267 127.755 209.491 128.841 207.419 129.63C205.397 130.37 203.004 130.74 200.241 130.74C196.147 130.74 192.521 129.951 189.363 128.372C186.255 126.793 183.813 124.524 182.037 121.564C180.311 118.604 179.447 115.101 179.447 111.056C179.447 107.109 180.286 103.656 181.963 100.696C183.69 97.6867 186.009 95.3433 188.919 93.666C191.879 91.9887 195.209 91.15 198.909 91.15C201.82 91.15 204.385 91.594 206.605 92.482C208.875 93.37 210.774 94.702 212.303 96.478C213.833 98.2047 214.992 100.351 215.781 102.916C216.571 105.481 216.965 108.491 216.965 111.944H187.809L187.735 107.874H208.159L206.383 109.354C206.334 106.789 206.161 104.618 205.865 102.842C205.569 101.066 205.125 99.6353 204.533 98.55C203.941 97.4647 203.177 96.6753 202.239 96.182C201.351 95.6887 200.315 95.442 199.131 95.442C197.898 95.442 196.763 95.7627 195.727 96.404C194.691 96.996 193.803 97.958 193.063 99.29C192.323 100.573 191.731 102.201 191.287 104.174C190.893 106.147 190.695 108.491 190.695 111.204ZM249.987 91.594V101.362C249.593 101.214 249.149 101.115 248.655 101.066C248.211 100.967 247.718 100.893 247.175 100.844C246.633 100.795 246.115 100.77 245.621 100.77C244.437 100.77 243.377 100.893 242.439 101.14C241.502 101.387 240.614 101.781 239.775 102.324C238.986 102.867 238.271 103.582 237.629 104.47C236.988 105.309 236.396 106.32 235.853 107.504L235.631 104.026C236.421 101.51 237.309 99.3147 238.295 97.44C239.331 95.516 240.589 94.0113 242.069 92.926C243.549 91.8407 245.301 91.298 247.323 91.298C247.915 91.298 248.433 91.3227 248.877 91.372C249.371 91.4213 249.741 91.4953 249.987 91.594ZM221.349 130V126.522H221.423C222.755 126.522 223.841 126.374 224.679 126.078C225.567 125.782 226.011 125.141 226.011 124.154V98.402C226.011 97.81 225.863 97.366 225.567 97.07C225.271 96.7247 224.827 96.4533 224.235 96.256C223.693 96.0093 222.953 95.812 222.015 95.664L221.349 95.516V91.89H236.445V103.508L237.185 102.916V125.19C237.185 125.585 237.457 125.881 237.999 126.078C238.542 126.226 239.208 126.349 239.997 126.448C240.787 126.497 241.527 126.522 242.217 126.522H243.253V130H221.349ZM279.378 123.118L276.418 128.89L273.162 133.33L257.77 97.81C257.474 97.1687 257.129 96.6753 256.734 96.33C256.389 95.9847 255.92 95.738 255.328 95.59C254.785 95.442 254.144 95.368 253.404 95.368H253.33V91.89H273.754V95.368H273.606C272.817 95.368 272.027 95.3927 271.238 95.442C270.449 95.4913 269.783 95.5653 269.24 95.664C268.697 95.7627 268.426 95.9107 268.426 96.108L279.378 123.118ZM278.49 129.26C277.158 132.467 275.826 135.205 274.494 137.474C273.211 139.793 271.879 141.667 270.498 143.098C269.117 144.529 267.661 145.565 266.132 146.206C264.652 146.897 263.049 147.242 261.322 147.242C259.99 147.242 258.855 147.094 257.918 146.798C256.981 146.502 256.241 146.157 255.698 145.762V137.474C255.895 137.523 256.315 137.671 256.956 137.918C257.597 138.214 258.387 138.485 259.324 138.732C260.261 139.028 261.297 139.176 262.432 139.176C263.616 139.176 264.726 139.003 265.762 138.658C266.847 138.362 267.883 137.795 268.87 136.956C269.857 136.167 270.819 135.032 271.756 133.552C272.693 132.072 273.631 130.148 274.568 127.78L275.9 124.672L287.148 97.07C287.148 96.7247 286.901 96.4287 286.408 96.182C285.964 95.9353 285.372 95.738 284.632 95.59C283.892 95.442 283.127 95.368 282.338 95.368H282.116V91.89H295.732V95.368H295.658C295.017 95.368 294.425 95.4667 293.882 95.664C293.339 95.8613 292.821 96.2067 292.328 96.7C291.884 97.1933 291.489 97.884 291.144 98.772L278.49 129.26ZM341.546 107.134V110.76C339.572 110.957 337.796 111.253 336.218 111.648C334.688 111.993 333.356 112.437 332.222 112.98C331.087 113.523 330.15 114.139 329.41 114.83C328.719 115.521 328.176 116.31 327.782 117.198C327.436 118.086 327.264 119.097 327.264 120.232C327.264 121.515 327.486 122.6 327.93 123.488C328.374 124.327 328.99 124.968 329.78 125.412C330.569 125.856 331.482 126.078 332.518 126.078C333.899 126.078 335.108 125.733 336.144 125.042C337.18 124.351 338.117 123.414 338.956 122.23C339.794 120.997 340.51 119.591 341.102 118.012L341.694 121.564C341.003 123.439 340.066 125.067 338.882 126.448C337.698 127.829 336.267 128.89 334.59 129.63C332.912 130.37 330.964 130.74 328.744 130.74C326.326 130.74 324.205 130.345 322.38 129.556C320.604 128.767 319.198 127.632 318.162 126.152C317.175 124.623 316.682 122.797 316.682 120.676C316.682 118.604 317.2 116.828 318.236 115.348C319.321 113.868 320.9 112.61 322.972 111.574C325.093 110.538 327.708 109.675 330.816 108.984C333.924 108.244 337.5 107.627 341.546 107.134ZM340.51 130V122.674L339.77 122.748V102.324C339.77 100.647 339.523 99.3147 339.03 98.328C338.586 97.292 337.895 96.552 336.958 96.108C336.07 95.6147 334.935 95.368 333.554 95.368C331.531 95.368 329.854 95.7873 328.522 96.626C327.19 97.4647 326.129 98.5007 325.34 99.734C325.192 99.142 325.142 98.5993 325.192 98.106C325.29 97.6127 325.463 97.1687 325.71 96.774C325.956 96.3793 326.277 96.0587 326.672 95.812C327.116 95.516 327.609 95.3187 328.152 95.22V103.582H319.272V95.886C319.962 95.294 320.998 94.6527 322.38 93.962C323.761 93.222 325.488 92.5807 327.56 92.038C329.632 91.446 332.024 91.15 334.738 91.15C337.056 91.15 339.178 91.3967 341.102 91.89C343.075 92.3833 344.777 93.148 346.208 94.184C347.638 95.1707 348.748 96.478 349.538 98.106C350.327 99.6847 350.722 101.609 350.722 103.878V124.08C350.722 124.623 350.894 125.067 351.24 125.412C351.634 125.708 352.152 125.93 352.794 126.078C353.435 126.226 354.175 126.325 355.014 126.374L355.31 126.448V130H340.51ZM358.293 130V126.522H358.367C359.255 126.522 360.019 126.473 360.661 126.374C361.351 126.226 361.894 125.979 362.289 125.634C362.733 125.289 362.955 124.795 362.955 124.154V98.402C362.955 97.7607 362.807 97.292 362.511 96.996C362.215 96.7 361.771 96.4533 361.179 96.256C360.636 96.0093 359.896 95.812 358.959 95.664L358.293 95.516V91.89H373.389V99.882L374.129 100.252V125.856C374.129 126.004 374.326 126.127 374.721 126.226C375.165 126.325 375.683 126.399 376.275 126.448C376.916 126.497 377.533 126.522 378.125 126.522H378.273V130H358.293ZM403.581 130H383.601V126.522H383.675C384.217 126.522 384.809 126.497 385.451 126.448C386.092 126.399 386.635 126.325 387.079 126.226C387.572 126.127 387.819 126.004 387.819 125.856V103.434C387.819 101.905 387.646 100.671 387.301 99.734C386.955 98.7473 386.413 98.032 385.673 97.588C384.982 97.0947 384.069 96.848 382.935 96.848C381.553 96.848 380.271 97.1933 379.087 97.884C377.903 98.5253 376.793 99.4873 375.757 100.77C374.77 102.003 373.808 103.533 372.871 105.358L372.353 100.548C373.487 98.5747 374.745 96.8973 376.127 95.516C377.508 94.0853 379.087 93 380.863 92.26C382.639 91.52 384.612 91.15 386.783 91.15C389.249 91.15 391.395 91.6187 393.221 92.556C395.046 93.4933 396.452 94.8993 397.439 96.774C398.475 98.5993 398.993 100.893 398.993 103.656V124.154C398.993 124.795 399.19 125.289 399.585 125.634C399.979 125.979 400.497 126.226 401.139 126.374C401.829 126.473 402.619 126.522 403.507 126.522H403.581V130ZM447.626 124.08C447.626 124.968 448.02 125.56 448.81 125.856C449.599 126.103 450.66 126.275 451.992 126.374L452.288 126.448V130H437.192V121.268L436.452 121.786V81.604C436.452 81.012 436.304 80.5433 436.008 80.198C435.712 79.8527 435.243 79.5813 434.602 79.384C434.01 79.1867 433.245 79.014 432.308 78.866L431.568 78.718V75.092H447.626V124.08ZM425.13 91.15C427.498 91.15 429.57 91.5447 431.346 92.334C433.122 93.1233 434.676 94.332 436.008 95.96C437.389 97.5387 438.622 99.5613 439.708 102.028L438.672 106.172C437.685 103.952 436.649 102.127 435.564 100.696C434.528 99.216 433.393 98.106 432.16 97.366C430.926 96.626 429.496 96.256 427.868 96.256C426.388 96.256 425.105 96.6013 424.02 97.292C422.934 97.9827 422.022 98.994 421.282 100.326C420.542 101.609 419.974 103.187 419.58 105.062C419.234 106.887 419.062 108.984 419.062 111.352C419.062 113.621 419.234 115.644 419.58 117.42C419.974 119.147 420.517 120.627 421.208 121.86C421.898 123.044 422.762 123.957 423.798 124.598C424.834 125.19 426.042 125.486 427.424 125.486C429.052 125.486 430.482 125.091 431.716 124.302C432.998 123.513 434.182 122.329 435.268 120.75C436.353 119.122 437.438 117.124 438.524 114.756L439.412 119.418C438.129 121.934 436.797 124.031 435.416 125.708C434.034 127.385 432.48 128.643 430.754 129.482C429.027 130.321 426.955 130.74 424.538 130.74C421.183 130.74 418.223 129.951 415.658 128.372C413.092 126.744 411.094 124.475 409.664 121.564C408.233 118.604 407.518 115.2 407.518 111.352C407.518 107.356 408.258 103.853 409.738 100.844C411.218 97.7853 413.29 95.4173 415.954 93.74C418.667 92.0133 421.726 91.15 425.13 91.15ZM0.0720001 204V200.522H0.146C1.478 200.522 2.56333 200.374 3.402 200.078C4.29 199.782 4.734 199.141 4.734 198.154V172.402C4.734 171.761 4.586 171.292 4.29 170.996C4.04333 170.7 3.624 170.453 3.032 170.256C2.44 170.009 1.67533 169.812 0.738 169.664L0.0720001 169.516V165.89H15.094V173.956L15.908 174.178V199.856C15.908 200.004 16.1053 200.127 16.5 200.226C16.8947 200.325 17.3633 200.399 17.906 200.448C18.498 200.497 19.016 200.522 19.46 200.522H19.608V204H0.0720001ZM42.622 204H23.9V200.522H23.974C24.4673 200.522 25.01 200.497 25.602 200.448C26.194 200.399 26.6873 200.325 27.082 200.226C27.4767 200.127 27.674 200.004 27.674 199.856V177.508C27.674 175.929 27.5507 174.671 27.304 173.734C27.0573 172.747 26.638 172.032 26.046 171.588C25.5033 171.095 24.6893 170.848 23.604 170.848C22.4693 170.848 21.384 171.169 20.348 171.81C19.312 172.402 18.3253 173.315 17.388 174.548C16.4507 175.781 15.538 177.36 14.65 179.284L14.132 174.474C15.2173 172.501 16.4013 170.823 17.684 169.442C19.016 168.061 20.4713 167 22.05 166.26C23.678 165.52 25.5033 165.15 27.526 165.15C29.7953 165.15 31.7687 165.619 33.446 166.556C35.1727 167.444 36.5047 168.825 37.442 170.7C38.4287 172.525 38.922 174.844 38.922 177.656V199.634C38.922 199.831 39.1193 200.004 39.514 200.152C39.9087 200.3 40.3773 200.399 40.92 200.448C41.512 200.497 42.0547 200.522 42.548 200.522H42.622V204ZM66.598 204H47.062V200.522H47.136C47.6293 200.522 48.1473 200.497 48.69 200.448C49.2327 200.399 49.7013 200.325 50.096 200.226C50.4907 200.127 50.688 200.004 50.688 199.856V177.508C50.688 175.929 50.5647 174.671 50.318 173.734C50.0713 172.747 49.652 172.032 49.06 171.588C48.5173 171.095 47.7033 170.848 46.618 170.848C45.4833 170.848 44.398 171.169 43.362 171.81C42.326 172.451 41.3393 173.389 40.402 174.622C39.4647 175.855 38.552 177.385 37.664 179.21L37.146 174.4C38.2313 172.476 39.4153 170.823 40.698 169.442C42.03 168.061 43.4853 167 45.064 166.26C46.692 165.52 48.5173 165.15 50.54 165.15C52.8093 165.15 54.7827 165.619 56.46 166.556C58.1867 167.444 59.5187 168.825 60.456 170.7C61.4427 172.525 61.936 174.844 61.936 177.656V198.154C61.936 199.141 62.3553 199.782 63.194 200.078C64.082 200.374 65.1673 200.522 66.45 200.522H66.598V204ZM112.131 184.982C112.131 188.879 111.268 192.333 109.541 195.342C107.814 198.302 105.397 200.621 102.289 202.298C99.1811 203.926 95.5305 204.74 91.3371 204.74C87.1931 204.74 83.5425 203.926 80.3851 202.298C77.2771 200.621 74.8598 198.302 73.1331 195.342C71.4065 192.333 70.5431 188.879 70.5431 184.982C70.5431 182.071 71.0365 179.407 72.0231 176.99C73.0098 174.523 74.4158 172.427 76.2411 170.7C78.1158 168.924 80.3111 167.567 82.8271 166.63C85.3925 165.643 88.2291 165.15 91.3371 165.15C94.4451 165.15 97.2571 165.643 99.7731 166.63C102.338 167.567 104.534 168.924 106.359 170.7C108.234 172.427 109.664 174.523 110.651 176.99C111.638 179.407 112.131 182.071 112.131 184.982ZM82.0871 184.982C82.0871 188.337 82.4325 191.173 83.1231 193.492C83.8631 195.811 84.9238 197.562 86.3051 198.746C87.6865 199.93 89.3638 200.522 91.3371 200.522C93.3598 200.522 95.0371 199.93 96.3691 198.746C97.7505 197.562 98.7865 195.811 99.4771 193.492C100.217 191.173 100.587 188.337 100.587 184.982C100.587 181.578 100.217 178.741 99.4771 176.472C98.7865 174.153 97.7505 172.402 96.3691 171.218C95.0371 170.034 93.3598 169.442 91.3371 169.442C89.3638 169.442 87.6865 170.034 86.3051 171.218C84.9238 172.402 83.8631 174.153 83.1231 176.472C82.4325 178.741 82.0871 181.578 82.0871 184.982ZM145.419 165.594V175.362C145.024 175.214 144.58 175.115 144.087 175.066C143.643 174.967 143.15 174.893 142.607 174.844C142.064 174.795 141.546 174.77 141.053 174.77C139.869 174.77 138.808 174.893 137.871 175.14C136.934 175.387 136.046 175.781 135.207 176.324C134.418 176.867 133.702 177.582 133.061 178.47C132.42 179.309 131.828 180.32 131.285 181.504L131.063 178.026C131.852 175.51 132.74 173.315 133.727 171.44C134.763 169.516 136.021 168.011 137.501 166.926C138.981 165.841 140.732 165.298 142.755 165.298C143.347 165.298 143.865 165.323 144.309 165.372C144.802 165.421 145.172 165.495 145.419 165.594ZM116.781 204V200.522H116.855C118.187 200.522 119.272 200.374 120.111 200.078C120.999 199.782 121.443 199.141 121.443 198.154V172.402C121.443 171.81 121.295 171.366 120.999 171.07C120.703 170.725 120.259 170.453 119.667 170.256C119.124 170.009 118.384 169.812 117.447 169.664L116.781 169.516V165.89H131.877V177.508L132.617 176.916V199.19C132.617 199.585 132.888 199.881 133.431 200.078C133.974 200.226 134.64 200.349 135.429 200.448C136.218 200.497 136.958 200.522 137.649 200.522H138.685V204H116.781ZM160.488 185.204C160.488 187.671 160.735 189.841 161.228 191.716C161.722 193.591 162.437 195.169 163.374 196.452C164.312 197.685 165.471 198.623 166.852 199.264C168.234 199.905 169.812 200.226 171.588 200.226C173.463 200.226 175.091 199.881 176.472 199.19C177.903 198.499 179.112 197.587 180.098 196.452C181.134 195.317 181.998 194.133 182.688 192.9L186.24 195.564C185.303 197.34 184.07 198.943 182.54 200.374C181.06 201.755 179.284 202.841 177.212 203.63C175.19 204.37 172.797 204.74 170.034 204.74C165.94 204.74 162.314 203.951 159.156 202.372C156.048 200.793 153.606 198.524 151.83 195.564C150.104 192.604 149.24 189.101 149.24 185.056C149.24 181.109 150.079 177.656 151.756 174.696C153.483 171.687 155.802 169.343 158.712 167.666C161.672 165.989 165.002 165.15 168.702 165.15C171.613 165.15 174.178 165.594 176.398 166.482C178.668 167.37 180.567 168.702 182.096 170.478C183.626 172.205 184.785 174.351 185.574 176.916C186.364 179.481 186.758 182.491 186.758 185.944H157.602L157.528 181.874H177.952L176.176 183.354C176.127 180.789 175.954 178.618 175.658 176.842C175.362 175.066 174.918 173.635 174.326 172.55C173.734 171.465 172.97 170.675 172.032 170.182C171.144 169.689 170.108 169.442 168.924 169.442C167.691 169.442 166.556 169.763 165.52 170.404C164.484 170.996 163.596 171.958 162.856 173.29C162.116 174.573 161.524 176.201 161.08 178.174C160.686 180.147 160.488 182.491 160.488 185.204Z" fill="#191720"/>
</svg>
