<svg width="7" height="7" viewBox="0 0 7 7" fill="none" xmlns="http://www.w3.org/2000/svg">
<path d="M3.00024 5.66722C2.07973 5.66722 1.33353 4.92102 1.33353 4.00054C1.33353 3.08002 2.07973 2.33382 3.00024 2.33382C3.92072 2.33382 4.66692 3.08002 4.66692 4.00054C4.66692 4.92102 3.92072 5.66722 3.00024 5.66722ZM3.00024 1.43291C1.58216 1.43291 0.432617 2.58246 0.432617 4.00054C0.432617 5.41858 1.58216 6.56813 3.00024 6.56813C4.41828 6.56813 5.56783 5.41858 5.56783 4.00054C5.56783 2.58246 4.41828 1.43291 3.00024 1.43291ZM6.2693 1.33147C6.2693 1.66286 6.00065 1.93147 5.66928 1.93147C5.33792 1.93147 5.06927 1.66286 5.06927 1.33147C5.06927 1.00009 5.33792 0.731445 5.66928 0.731445C6.00065 0.731445 6.2693 1.00009 6.2693 1.33147Z" fill="white"/>
</svg>
