<svg width="44" height="44" viewBox="0 0 44 44" fill="none" xmlns="http://www.w3.org/2000/svg">
<rect width="44" height="44" rx="6" fill="#F05E36"/>
<path d="M34 17.5515V28.175C34 30.0117 32.5158 31.5 30.6842 31.5H13.3158C12.4364 31.5 11.593 31.1497 10.9712 30.5261C10.3493 29.9026 10 29.0568 10 28.175V17.5515L21.6198 23.9608C21.8566 24.0913 22.144 24.0913 22.3802 23.9608L34 17.5508V17.5515ZM30.6842 12.5C31.5498 12.5001 32.381 12.8396 33.0003 13.4459C33.6196 14.0523 33.978 14.8775 33.9987 15.7452L22 22.3635L10.0013 15.7446L10.0025 15.6876C10.0379 14.8302 10.4024 14.0197 11.0199 13.4257C11.6374 12.8316 12.4601 12.4999 13.3158 12.5H30.6842Z" fill="white"/>
</svg>
