<svg width="44" height="44" viewBox="0 0 44 44" fill="none" xmlns="http://www.w3.org/2000/svg">
<rect width="44" height="44" rx="6" fill="#29B067"/>
<g clip-path="url(#clip0_133_350)">
<path d="M17.7296 11.1532C17.3687 10.2813 16.4171 9.81727 15.5077 10.0657L11.3827 11.1907C10.5671 11.4157 9.99992 12.1563 9.99992 13.0001C9.99992 24.597 19.403 34.0001 30.9999 34.0001C31.8437 34.0001 32.5843 33.4329 32.8093 32.6173L33.9343 28.4923C34.1827 27.5829 33.7187 26.6313 32.8468 26.2704L28.3468 24.3954C27.5827 24.0766 26.6968 24.297 26.1765 24.9391L24.2827 27.2501C20.9827 25.6891 18.3109 23.0173 16.7499 19.7173L19.0609 17.8282C19.703 17.3032 19.9234 16.422 19.6046 15.6579L17.7296 11.1579V11.1532Z" fill="white"/>
</g>
<defs>
<clipPath id="clip0_133_350">
<rect width="24" height="24" fill="white" transform="matrix(-1 0 0 1 34 10)"/>
</clipPath>
</defs>
</svg>
