<svg width="28" height="28" viewBox="0 0 28 28" fill="none" xmlns="http://www.w3.org/2000/svg">
<rect width="28" height="28" rx="4" fill="#191720"/>
<path fill-rule="evenodd" clip-rule="evenodd" d="M15.6968 13.3866H17.9111C18.2468 13.3866 18.5106 13.109 18.5106 12.7743C18.5106 12.4314 18.2468 12.162 17.9111 12.162H15.6968C15.3611 12.162 15.0973 12.4314 15.0973 12.7743C15.0973 13.109 15.3611 13.3866 15.6968 13.3866ZM20.5413 9.14199C21.0289 9.14199 21.3486 9.31344 21.6684 9.68899C21.9881 10.0645 22.0441 10.6034 21.9721 11.0924L21.2127 16.448C21.0689 17.4775 20.2055 18.236 19.1903 18.236H10.4691C9.40594 18.236 8.52662 17.404 8.43869 16.3264L7.70327 7.42672L6.49621 7.21446C6.17646 7.15731 5.95263 6.83891 6.00859 6.51235C6.06454 6.17844 6.3763 5.95719 6.70405 6.00699L8.61056 6.30008C8.88235 6.34988 9.08219 6.57766 9.10617 6.85524L9.25805 8.68399C9.28204 8.94606 9.48987 9.14199 9.74567 9.14199H20.5413ZM10.341 19.5264C9.66955 19.5264 9.12598 20.0815 9.12598 20.7673C9.12598 21.4449 9.66955 22.0001 10.341 22.0001C11.0045 22.0001 11.5481 21.4449 11.5481 20.7673C11.5481 20.0815 11.0045 19.5264 10.341 19.5264ZM19.334 19.5264C18.6625 19.5264 18.1189 20.0815 18.1189 20.7673C18.1189 21.4449 18.6625 22.0001 19.334 22.0001C19.9975 22.0001 20.5411 21.4449 20.5411 20.7673C20.5411 20.0815 19.9975 19.5264 19.334 19.5264Z" fill="white"/>
</svg>
